<?xml version="1.0" encoding="UTF-8" standalone="no"?>
<!DOCTYPE svg PUBLIC "-//W3C//DTD SVG 1.1//EN"
 "http://www.w3.org/Graphics/SVG/1.1/DTD/svg11.dtd">
<!-- Generated by graphviz version 2.40.1 (20161225.0304)
 -->
<!-- Title: %0 Pages: 1 -->
<svg width="154pt" height="310pt"
 viewBox="0.00 0.00 154.26 310.40" xmlns="http://www.w3.org/2000/svg" xmlns:xlink="http://www.w3.org/1999/xlink">
<g id="graph0" class="graph" transform="scale(1 1) rotate(0) translate(4 306.4)">
<title>%0</title>
<polygon fill="#ffffff" stroke="transparent" points="-4,4 -4,-306.4 150.264,-306.4 150.264,4 -4,4"/>
<!-- 0 -->
<g id="node1" class="node">
<title>0</title>
<ellipse fill="none" stroke="#000000" cx="29.264" cy="-18" rx="29.0299" ry="18"/>
<text text-anchor="middle" x="29.264" y="-13.8" font-family="Times,serif" font-size="14.00" fill="#000000">false</text>
</g>
<!-- 1 -->
<g id="node2" class="node">
<title>1</title>
<ellipse fill="none" stroke="#000000" cx="111.264" cy="-18" rx="27" ry="18"/>
<text text-anchor="middle" x="111.264" y="-13.8" font-family="Times,serif" font-size="14.00" fill="#000000">true</text>
</g>
<!-- 2 -->
<g id="node3" class="node">
<title>2</title>
<ellipse fill="none" stroke="#000000" cx="83.264" cy="-284.4" rx="27" ry="18"/>
<text text-anchor="middle" x="83.264" y="-280.2" font-family="Times,serif" font-size="14.00" fill="#000000">x1</text>
</g>
<!-- 3 -->
<g id="node4" class="node">
<title>3</title>
<ellipse fill="none" stroke="#000000" cx="119.264" cy="-106.8" rx="27" ry="18"/>
<text text-anchor="middle" x="119.264" y="-102.6" font-family="Times,serif" font-size="14.00" fill="#000000">x3</text>
</g>
<!-- 2&#45;&gt;3 -->
<g id="edge1" class="edge">
<title>2&#45;&gt;3</title>
<path fill="none" stroke="#000000" d="M86.914,-266.3934C93.194,-235.412 106.0871,-171.806 113.561,-134.9346"/>
<polygon fill="#000000" stroke="#000000" points="117.0479,-135.3503 115.6043,-124.8543 110.1874,-133.9596 117.0479,-135.3503"/>
<text text-anchor="middle" x="107.764" y="-191.4" font-family="Times,serif" font-size="14.00" fill="#000000">0</text>
</g>
<!-- 4 -->
<g id="node5" class="node">
<title>4</title>
<ellipse fill="none" stroke="#000000" cx="47.264" cy="-195.6" rx="27" ry="18"/>
<text text-anchor="middle" x="47.264" y="-191.4" font-family="Times,serif" font-size="14.00" fill="#000000">x2</text>
</g>
<!-- 2&#45;&gt;4 -->
<g id="edge2" class="edge">
<title>2&#45;&gt;4</title>
<path fill="none" stroke="#000000" d="M76.1515,-266.856C71.0236,-254.2071 64.0073,-236.9002 58.1737,-222.5105"/>
<polygon fill="#000000" stroke="#000000" points="61.3624,-221.06 54.3617,-213.1076 54.8752,-223.69 61.3624,-221.06"/>
<text text-anchor="middle" x="71.764" y="-235.8" font-family="Times,serif" font-size="14.00" fill="#000000">1</text>
</g>
<!-- 3&#45;&gt;0 -->
<g id="edge4" class="edge">
<title>3&#45;&gt;0</title>
<path fill="none" stroke="#000000" d="M104.384,-91.4116C94.0599,-80.804 79.9396,-66.4322 67.264,-54 62.6657,-49.49 57.7008,-44.7178 52.9249,-40.1744"/>
<polygon fill="#000000" stroke="#000000" points="55.3237,-37.6258 45.6551,-33.2935 50.5118,-42.7096 55.3237,-37.6258"/>
<text text-anchor="middle" x="85.764" y="-58.2" font-family="Times,serif" font-size="14.00" fill="#000000">1</text>
</g>
<!-- 3&#45;&gt;1 -->
<g id="edge3" class="edge">
<title>3&#45;&gt;1</title>
<path fill="none" stroke="#000000" d="M117.6451,-88.83C116.5463,-76.6338 115.0707,-60.2543 113.8152,-46.3187"/>
<polygon fill="#000000" stroke="#000000" points="117.2912,-45.8937 112.908,-36.2481 110.3194,-46.5218 117.2912,-45.8937"/>
<text text-anchor="middle" x="118.764" y="-58.2" font-family="Times,serif" font-size="14.00" fill="#000000">0</text>
</g>
<!-- 4&#45;&gt;0 -->
<g id="edge5" class="edge">
<title>4&#45;&gt;0</title>
<path fill="none" stroke="#000000" d="M34.0344,-179.6481C23.6585,-166.0337 10.0394,-145.4348 4.264,-124.8 -3.347,-97.6065 6.2478,-66.0817 15.6691,-44.3679"/>
<polygon fill="#000000" stroke="#000000" points="18.9183,-45.6795 19.9231,-35.1324 12.5604,-42.7508 18.9183,-45.6795"/>
<text text-anchor="middle" x="7.764" y="-102.6" font-family="Times,serif" font-size="14.00" fill="#000000">0</text>
</g>
<!-- 5 -->
<g id="node6" class="node">
<title>5</title>
<ellipse fill="none" stroke="#000000" cx="47.264" cy="-106.8" rx="27" ry="18"/>
<text text-anchor="middle" x="47.264" y="-102.6" font-family="Times,serif" font-size="14.00" fill="#000000">x3</text>
</g>
<!-- 4&#45;&gt;5 -->
<g id="edge6" class="edge">
<title>4&#45;&gt;5</title>
<path fill="none" stroke="#000000" d="M47.264,-177.2006C47.264,-165.0949 47.264,-149.0076 47.264,-135.2674"/>
<polygon fill="#000000" stroke="#000000" points="50.7641,-134.872 47.264,-124.872 43.7641,-134.8721 50.7641,-134.872"/>
<text text-anchor="middle" x="50.764" y="-147" font-family="Times,serif" font-size="14.00" fill="#000000">1</text>
</g>
<!-- 5&#45;&gt;0 -->
<g id="edge7" class="edge">
<title>5&#45;&gt;0</title>
<path fill="none" stroke="#000000" d="M38.7153,-89.6145C36.1922,-83.7813 33.7191,-77.135 32.264,-70.8 30.4633,-62.9603 29.5437,-54.3027 29.1131,-46.3052"/>
<polygon fill="#000000" stroke="#000000" points="32.611,-46.1801 28.7956,-36.2961 25.6145,-46.4021 32.611,-46.1801"/>
<text text-anchor="middle" x="35.764" y="-58.2" font-family="Times,serif" font-size="14.00" fill="#000000">0</text>
</g>
<!-- 5&#45;&gt;1 -->
<g id="edge8" class="edge">
<title>5&#45;&gt;1</title>
<path fill="none" stroke="#000000" d="M49.453,-88.4136C51.4402,-77.6321 55.1979,-64.1754 62.264,-54 67.3706,-46.6463 74.4718,-40.2139 81.6854,-34.8994"/>
<polygon fill="#000000" stroke="#000000" points="83.789,-37.7016 90.0925,-29.1859 79.8544,-31.912 83.789,-37.7016"/>
<text text-anchor="middle" x="65.764" y="-58.2" font-family="Times,serif" font-size="14.00" fill="#000000">1</text>
</g>
</g>
</svg>