<?xml version="1.0" encoding="UTF-8" standalone="no"?>
<!DOCTYPE svg PUBLIC "-//W3C//DTD SVG 1.1//EN"
 "http://www.w3.org/Graphics/SVG/1.1/DTD/svg11.dtd">
<!-- Generated by graphviz version 2.40.1 (20161225.0304)
 -->
<!-- Title: %0 Pages: 1 -->
<svg width="217pt" height="754pt"
 viewBox="0.00 0.00 217.26 754.40" xmlns="http://www.w3.org/2000/svg" xmlns:xlink="http://www.w3.org/1999/xlink">
<g id="graph0" class="graph" transform="scale(1 1) rotate(0) translate(4 750.4)">
<title>%0</title>
<polygon fill="#ffffff" stroke="transparent" points="-4,4 -4,-750.4 213.264,-750.4 213.264,4 -4,4"/>
<!-- 0 -->
<g id="node1" class="node">
<title>0</title>
<ellipse fill="none" stroke="#000000" cx="29.264" cy="-18" rx="29.0299" ry="18"/>
<text text-anchor="middle" x="29.264" y="-13.8" font-family="Times,serif" font-size="14.00" fill="#000000">false</text>
</g>
<!-- 1 -->
<g id="node2" class="node">
<title>1</title>
<ellipse fill="none" stroke="#000000" cx="119.264" cy="-18" rx="27" ry="18"/>
<text text-anchor="middle" x="119.264" y="-13.8" font-family="Times,serif" font-size="14.00" fill="#000000">true</text>
</g>
<!-- 2 -->
<g id="node3" class="node">
<title>2</title>
<ellipse fill="none" stroke="#000000" cx="151.264" cy="-728.4" rx="27" ry="18"/>
<text text-anchor="middle" x="151.264" y="-724.2" font-family="Times,serif" font-size="14.00" fill="#000000">x1</text>
</g>
<!-- 3 -->
<g id="node4" class="node">
<title>3</title>
<ellipse fill="none" stroke="#000000" cx="130.264" cy="-550.8" rx="27" ry="18"/>
<text text-anchor="middle" x="130.264" y="-546.6" font-family="Times,serif" font-size="14.00" fill="#000000">x3</text>
</g>
<!-- 2&#45;&gt;3 -->
<g id="edge1" class="edge">
<title>2&#45;&gt;3</title>
<path fill="none" stroke="#000000" d="M147.7881,-710.4199C145.1325,-696.1463 141.5511,-675.6575 139.264,-657.6 135.9038,-631.0696 133.4799,-600.6673 132.0001,-579.1021"/>
<polygon fill="#000000" stroke="#000000" points="135.4836,-578.7369 131.3309,-568.9898 128.4989,-579.1991 135.4836,-578.7369"/>
<text text-anchor="middle" x="142.764" y="-635.4" font-family="Times,serif" font-size="14.00" fill="#000000">0</text>
</g>
<!-- 4 -->
<g id="node5" class="node">
<title>4</title>
<ellipse fill="none" stroke="#000000" cx="182.264" cy="-639.6" rx="27" ry="18"/>
<text text-anchor="middle" x="182.264" y="-635.4" font-family="Times,serif" font-size="14.00" fill="#000000">x2</text>
</g>
<!-- 2&#45;&gt;4 -->
<g id="edge2" class="edge">
<title>2&#45;&gt;4</title>
<path fill="none" stroke="#000000" d="M157.3886,-710.856C161.7335,-698.4101 167.6526,-681.4545 172.6269,-667.2055"/>
<polygon fill="#000000" stroke="#000000" points="176.0544,-668.0064 176.046,-657.4115 169.4456,-665.6992 176.0544,-668.0064"/>
<text text-anchor="middle" x="172.764" y="-679.8" font-family="Times,serif" font-size="14.00" fill="#000000">1</text>
</g>
<!-- 5 -->
<g id="node6" class="node">
<title>5</title>
<ellipse fill="none" stroke="#000000" cx="85.264" cy="-373.2" rx="27" ry="18"/>
<text text-anchor="middle" x="85.264" y="-369" font-family="Times,serif" font-size="14.00" fill="#000000">x5</text>
</g>
<!-- 3&#45;&gt;5 -->
<g id="edge3" class="edge">
<title>3&#45;&gt;5</title>
<path fill="none" stroke="#000000" d="M117.1355,-534.8193C106.8198,-521.1877 93.2323,-500.5799 87.264,-480 79.7622,-454.1322 80.1285,-423.2412 81.85,-401.3521"/>
<polygon fill="#000000" stroke="#000000" points="85.3352,-401.672 82.7754,-391.3911 78.3653,-401.0244 85.3352,-401.672"/>
<text text-anchor="middle" x="90.764" y="-457.8" font-family="Times,serif" font-size="14.00" fill="#000000">0</text>
</g>
<!-- 6 -->
<g id="node7" class="node">
<title>6</title>
<ellipse fill="none" stroke="#000000" cx="130.264" cy="-462" rx="27" ry="18"/>
<text text-anchor="middle" x="130.264" y="-457.8" font-family="Times,serif" font-size="14.00" fill="#000000">x4</text>
</g>
<!-- 3&#45;&gt;6 -->
<g id="edge4" class="edge">
<title>3&#45;&gt;6</title>
<path fill="none" stroke="#000000" d="M130.264,-532.4006C130.264,-520.2949 130.264,-504.2076 130.264,-490.4674"/>
<polygon fill="#000000" stroke="#000000" points="133.7641,-490.072 130.264,-480.072 126.7641,-490.0721 133.7641,-490.072"/>
<text text-anchor="middle" x="133.764" y="-502.2" font-family="Times,serif" font-size="14.00" fill="#000000">1</text>
</g>
<!-- 4&#45;&gt;1 -->
<g id="edge16" class="edge">
<title>4&#45;&gt;1</title>
<path fill="none" stroke="#000000" d="M183.2297,-621.5781C184.1067,-603.6417 185.264,-575.3265 185.264,-550.8 185.264,-550.8 185.264,-550.8 185.264,-106.8 185.264,-79.1487 164.3948,-54.5164 146.1266,-38.2512"/>
<polygon fill="#000000" stroke="#000000" points="147.898,-35.1659 138.0004,-31.386 143.3805,-40.5131 147.898,-35.1659"/>
<text text-anchor="middle" x="188.764" y="-324.6" font-family="Times,serif" font-size="14.00" fill="#000000">1</text>
</g>
<!-- 4&#45;&gt;3 -->
<g id="edge15" class="edge">
<title>4&#45;&gt;3</title>
<path fill="none" stroke="#000000" d="M172.2379,-622.4785C164.5636,-609.3732 153.8579,-591.0911 145.1794,-576.2709"/>
<polygon fill="#000000" stroke="#000000" points="148.1565,-574.4285 140.083,-567.5678 142.116,-577.9658 148.1565,-574.4285"/>
<text text-anchor="middle" x="163.764" y="-591" font-family="Times,serif" font-size="14.00" fill="#000000">0</text>
</g>
<!-- 7 -->
<g id="node8" class="node">
<title>7</title>
<ellipse fill="none" stroke="#000000" cx="44.264" cy="-195.6" rx="27" ry="18"/>
<text text-anchor="middle" x="44.264" y="-191.4" font-family="Times,serif" font-size="14.00" fill="#000000">x7</text>
</g>
<!-- 5&#45;&gt;7 -->
<g id="edge5" class="edge">
<title>5&#45;&gt;7</title>
<path fill="none" stroke="#000000" d="M73.3487,-357.0206C63.9879,-343.2707 51.6618,-322.6007 46.264,-302.4 39.3426,-276.4976 39.601,-245.7894 41.1371,-223.9646"/>
<polygon fill="#000000" stroke="#000000" points="44.6474,-223.9873 41.9967,-213.7295 37.672,-223.4015 44.6474,-223.9873"/>
<text text-anchor="middle" x="49.764" y="-280.2" font-family="Times,serif" font-size="14.00" fill="#000000">0</text>
</g>
<!-- 8 -->
<g id="node9" class="node">
<title>8</title>
<ellipse fill="none" stroke="#000000" cx="89.264" cy="-284.4" rx="27" ry="18"/>
<text text-anchor="middle" x="89.264" y="-280.2" font-family="Times,serif" font-size="14.00" fill="#000000">x6</text>
</g>
<!-- 5&#45;&gt;8 -->
<g id="edge6" class="edge">
<title>5&#45;&gt;8</title>
<path fill="none" stroke="#000000" d="M86.0928,-354.8006C86.6381,-342.6949 87.3627,-326.6076 87.9817,-312.8674"/>
<polygon fill="#000000" stroke="#000000" points="91.4963,-312.6194 88.4499,-302.472 84.5034,-312.3044 91.4963,-312.6194"/>
<text text-anchor="middle" x="91.764" y="-324.6" font-family="Times,serif" font-size="14.00" fill="#000000">1</text>
</g>
<!-- 6&#45;&gt;1 -->
<g id="edge14" class="edge">
<title>6&#45;&gt;1</title>
<path fill="none" stroke="#000000" d="M134.7707,-444.1025C138.8634,-426.2606 144.264,-398.0153 144.264,-373.2 144.264,-373.2 144.264,-373.2 144.264,-106.8 144.264,-85.3786 137.4399,-62.1016 130.9223,-44.7552"/>
<polygon fill="#000000" stroke="#000000" points="134.109,-43.296 127.1741,-35.2861 127.6003,-45.8724 134.109,-43.296"/>
<text text-anchor="middle" x="147.764" y="-235.8" font-family="Times,serif" font-size="14.00" fill="#000000">1</text>
</g>
<!-- 6&#45;&gt;5 -->
<g id="edge13" class="edge">
<title>6&#45;&gt;5</title>
<path fill="none" stroke="#000000" d="M121.5875,-444.8785C115.0509,-431.9795 105.9728,-414.0655 98.5275,-399.3734"/>
<polygon fill="#000000" stroke="#000000" points="101.5562,-397.6069 93.9138,-390.269 95.3121,-400.7711 101.5562,-397.6069"/>
<text text-anchor="middle" x="115.764" y="-413.4" font-family="Times,serif" font-size="14.00" fill="#000000">0</text>
</g>
<!-- 7&#45;&gt;0 -->
<g id="edge7" class="edge">
<title>7&#45;&gt;0</title>
<path fill="none" stroke="#000000" d="M32.9878,-179.0261C24.309,-165.2088 13.0199,-144.6464 8.264,-124.8 1.8012,-97.8312 9.6498,-66.6844 17.525,-45.013"/>
<polygon fill="#000000" stroke="#000000" points="20.8677,-46.073 21.2119,-35.4838 14.3393,-43.5471 20.8677,-46.073"/>
<text text-anchor="middle" x="11.764" y="-102.6" font-family="Times,serif" font-size="14.00" fill="#000000">0</text>
</g>
<!-- 9 -->
<g id="node10" class="node">
<title>9</title>
<ellipse fill="none" stroke="#000000" cx="51.264" cy="-106.8" rx="27" ry="18"/>
<text text-anchor="middle" x="51.264" y="-102.6" font-family="Times,serif" font-size="14.00" fill="#000000">x8</text>
</g>
<!-- 7&#45;&gt;9 -->
<g id="edge8" class="edge">
<title>7&#45;&gt;9</title>
<path fill="none" stroke="#000000" d="M45.7144,-177.2006C46.6781,-164.975 47.962,-148.6887 49.0521,-134.8599"/>
<polygon fill="#000000" stroke="#000000" points="52.5426,-135.1162 49.8394,-124.872 45.5643,-134.566 52.5426,-135.1162"/>
<text text-anchor="middle" x="52.764" y="-147" font-family="Times,serif" font-size="14.00" fill="#000000">1</text>
</g>
<!-- 8&#45;&gt;1 -->
<g id="edge12" class="edge">
<title>8&#45;&gt;1</title>
<path fill="none" stroke="#000000" d="M91.326,-266.0892C96.4764,-220.3536 109.9316,-100.8719 116.0961,-46.1306"/>
<polygon fill="#000000" stroke="#000000" points="119.5861,-46.4155 117.2272,-36.0866 112.6301,-45.6321 119.5861,-46.4155"/>
<text text-anchor="middle" x="108.764" y="-147" font-family="Times,serif" font-size="14.00" fill="#000000">1</text>
</g>
<!-- 8&#45;&gt;7 -->
<g id="edge11" class="edge">
<title>8&#45;&gt;7</title>
<path fill="none" stroke="#000000" d="M80.5875,-267.2785C74.0509,-254.3795 64.9728,-236.4655 57.5275,-221.7734"/>
<polygon fill="#000000" stroke="#000000" points="60.5562,-220.0069 52.9138,-212.669 54.3121,-223.1711 60.5562,-220.0069"/>
<text text-anchor="middle" x="74.764" y="-235.8" font-family="Times,serif" font-size="14.00" fill="#000000">0</text>
</g>
<!-- 9&#45;&gt;0 -->
<g id="edge9" class="edge">
<title>9&#45;&gt;0</title>
<path fill="none" stroke="#000000" d="M46.812,-88.83C43.7704,-76.553 39.6786,-60.0372 36.2114,-46.0421"/>
<polygon fill="#000000" stroke="#000000" points="39.5115,-44.8081 33.7094,-35.9433 32.717,-46.4915 39.5115,-44.8081"/>
<text text-anchor="middle" x="45.764" y="-58.2" font-family="Times,serif" font-size="14.00" fill="#000000">0</text>
</g>
<!-- 9&#45;&gt;1 -->
<g id="edge10" class="edge">
<title>9&#45;&gt;1</title>
<path fill="none" stroke="#000000" d="M61.221,-89.6116C67.6273,-79.0136 76.3895,-65.3298 85.264,-54 88.776,-49.5163 92.7473,-44.9423 96.705,-40.625"/>
<polygon fill="#000000" stroke="#000000" points="99.3901,-42.8794 103.712,-33.2061 94.3011,-38.0729 99.3901,-42.8794"/>
<text text-anchor="middle" x="88.764" y="-58.2" font-family="Times,serif" font-size="14.00" fill="#000000">1</text>
</g>
</g>
</svg>