<?xml version="1.0" encoding="UTF-8" standalone="no"?>
<!DOCTYPE svg PUBLIC "-//W3C//DTD SVG 1.1//EN"
 "http://www.w3.org/Graphics/SVG/1.1/DTD/svg11.dtd">
<!-- Generated by graphviz version 2.40.1 (20161225.0304)
 -->
<!-- Title: %0 Pages: 1 -->
<svg width="182pt" height="399pt"
 viewBox="0.00 0.00 182.00 399.20" xmlns="http://www.w3.org/2000/svg" xmlns:xlink="http://www.w3.org/1999/xlink">
<g id="graph0" class="graph" transform="scale(1 1) rotate(0) translate(4 395.2)">
<title>%0</title>
<polygon fill="#ffffff" stroke="transparent" points="-4,4 -4,-395.2 178,-395.2 178,4 -4,4"/>
<!-- 0 -->
<g id="node1" class="node">
<title>0</title>
<ellipse fill="none" stroke="#000000" cx="42" cy="-18" rx="29.0299" ry="18"/>
<text text-anchor="middle" x="42" y="-13.8" font-family="Times,serif" font-size="14.00" fill="#000000">false</text>
</g>
<!-- 1 -->
<g id="node2" class="node">
<title>1</title>
<ellipse fill="none" stroke="#000000" cx="126" cy="-18" rx="27" ry="18"/>
<text text-anchor="middle" x="126" y="-13.8" font-family="Times,serif" font-size="14.00" fill="#000000">true</text>
</g>
<!-- 2 -->
<g id="node3" class="node">
<title>2</title>
<ellipse fill="none" stroke="#000000" cx="99" cy="-373.2" rx="27" ry="18"/>
<text text-anchor="middle" x="99" y="-369" font-family="Times,serif" font-size="14.00" fill="#000000">a</text>
</g>
<!-- 3 -->
<g id="node4" class="node">
<title>3</title>
<ellipse fill="none" stroke="#000000" cx="63" cy="-284.4" rx="27" ry="18"/>
<text text-anchor="middle" x="63" y="-280.2" font-family="Times,serif" font-size="14.00" fill="#000000">b</text>
</g>
<!-- 2&#45;&gt;3 -->
<g id="edge1" class="edge">
<title>2&#45;&gt;3</title>
<path fill="none" stroke="#000000" d="M91.8876,-355.656C86.7596,-343.0071 79.7433,-325.7002 73.9097,-311.3105"/>
<polygon fill="#000000" stroke="#000000" points="77.0984,-309.86 70.0977,-301.9076 70.6112,-312.49 77.0984,-309.86"/>
<text text-anchor="middle" x="87.5" y="-324.6" font-family="Times,serif" font-size="14.00" fill="#000000">0</text>
</g>
<!-- 4 -->
<g id="node5" class="node">
<title>4</title>
<ellipse fill="none" stroke="#000000" cx="135" cy="-284.4" rx="27" ry="18"/>
<text text-anchor="middle" x="135" y="-280.2" font-family="Times,serif" font-size="14.00" fill="#000000">b</text>
</g>
<!-- 2&#45;&gt;4 -->
<g id="edge2" class="edge">
<title>2&#45;&gt;4</title>
<path fill="none" stroke="#000000" d="M106.1124,-355.656C111.2404,-343.0071 118.2567,-325.7002 124.0903,-311.3105"/>
<polygon fill="#000000" stroke="#000000" points="127.3888,-312.49 127.9023,-301.9076 120.9016,-309.86 127.3888,-312.49"/>
<text text-anchor="middle" x="123.5" y="-324.6" font-family="Times,serif" font-size="14.00" fill="#000000">1</text>
</g>
<!-- 5 -->
<g id="node6" class="node">
<title>5</title>
<ellipse fill="none" stroke="#000000" cx="27" cy="-195.6" rx="27" ry="18"/>
<text text-anchor="middle" x="27" y="-191.4" font-family="Times,serif" font-size="14.00" fill="#000000">c</text>
</g>
<!-- 3&#45;&gt;5 -->
<g id="edge3" class="edge">
<title>3&#45;&gt;5</title>
<path fill="none" stroke="#000000" d="M55.8876,-266.856C50.7596,-254.2071 43.7433,-236.9002 37.9097,-222.5105"/>
<polygon fill="#000000" stroke="#000000" points="41.0984,-221.06 34.0977,-213.1076 34.6112,-223.69 41.0984,-221.06"/>
<text text-anchor="middle" x="51.5" y="-235.8" font-family="Times,serif" font-size="14.00" fill="#000000">0</text>
</g>
<!-- 6 -->
<g id="node7" class="node">
<title>6</title>
<ellipse fill="none" stroke="#000000" cx="84" cy="-106.8" rx="27" ry="18"/>
<text text-anchor="middle" x="84" y="-102.6" font-family="Times,serif" font-size="14.00" fill="#000000">d</text>
</g>
<!-- 3&#45;&gt;6 -->
<g id="edge4" class="edge">
<title>3&#45;&gt;6</title>
<path fill="none" stroke="#000000" d="M65.1292,-266.3934C68.7925,-235.412 76.3135,-171.806 80.6733,-134.9346"/>
<polygon fill="#000000" stroke="#000000" points="84.1667,-135.1961 81.8652,-124.8543 77.2151,-134.3741 84.1667,-135.1961"/>
<text text-anchor="middle" x="78.5" y="-191.4" font-family="Times,serif" font-size="14.00" fill="#000000">1</text>
</g>
<!-- 4&#45;&gt;5 -->
<g id="edge9" class="edge">
<title>4&#45;&gt;5</title>
<path fill="none" stroke="#000000" d="M117.6479,-270.1327C99.9345,-255.5683 72.2596,-232.8135 52.1461,-216.2757"/>
<polygon fill="#000000" stroke="#000000" points="54.2562,-213.4794 44.309,-209.8318 49.8104,-218.8864 54.2562,-213.4794"/>
<text text-anchor="middle" x="93.5" y="-235.8" font-family="Times,serif" font-size="14.00" fill="#000000">0</text>
</g>
<!-- 7 -->
<g id="node8" class="node">
<title>7</title>
<ellipse fill="none" stroke="#000000" cx="147" cy="-195.6" rx="27" ry="18"/>
<text text-anchor="middle" x="147" y="-191.4" font-family="Times,serif" font-size="14.00" fill="#000000">c</text>
</g>
<!-- 4&#45;&gt;7 -->
<g id="edge10" class="edge">
<title>4&#45;&gt;7</title>
<path fill="none" stroke="#000000" d="M137.4284,-266.43C139.0874,-254.153 141.3193,-237.6372 143.2105,-223.6421"/>
<polygon fill="#000000" stroke="#000000" points="146.7044,-223.9219 144.5752,-213.5433 139.7675,-222.9845 146.7044,-223.9219"/>
<text text-anchor="middle" x="145.5" y="-235.8" font-family="Times,serif" font-size="14.00" fill="#000000">1</text>
</g>
<!-- 5&#45;&gt;0 -->
<g id="edge5" class="edge">
<title>5&#45;&gt;0</title>
<path fill="none" stroke="#000000" d="M28.5208,-177.5934C31.1375,-146.612 36.5096,-83.006 39.6238,-46.1346"/>
<polygon fill="#000000" stroke="#000000" points="43.121,-46.3134 40.4751,-36.0543 36.1459,-45.7242 43.121,-46.3134"/>
<text text-anchor="middle" x="38.5" y="-102.6" font-family="Times,serif" font-size="14.00" fill="#000000">0</text>
</g>
<!-- 5&#45;&gt;6 -->
<g id="edge6" class="edge">
<title>5&#45;&gt;6</title>
<path fill="none" stroke="#000000" d="M37.7213,-178.8974C46.1604,-165.7501 58.0624,-147.208 67.6829,-132.2203"/>
<polygon fill="#000000" stroke="#000000" points="70.8704,-133.7339 73.3268,-123.4277 64.9795,-129.9525 70.8704,-133.7339"/>
<text text-anchor="middle" x="63.5" y="-147" font-family="Times,serif" font-size="14.00" fill="#000000">1</text>
</g>
<!-- 6&#45;&gt;0 -->
<g id="edge7" class="edge">
<title>6&#45;&gt;0</title>
<path fill="none" stroke="#000000" d="M75.7022,-89.256C69.7196,-76.6071 61.5339,-59.3002 54.728,-44.9105"/>
<polygon fill="#000000" stroke="#000000" points="57.7202,-43.051 50.2806,-35.5076 51.3923,-46.0439 57.7202,-43.051"/>
<text text-anchor="middle" x="69.5" y="-58.2" font-family="Times,serif" font-size="14.00" fill="#000000">0</text>
</g>
<!-- 6&#45;&gt;1 -->
<g id="edge8" class="edge">
<title>6&#45;&gt;1</title>
<path fill="none" stroke="#000000" d="M92.2978,-89.256C98.3193,-76.525 106.5725,-59.0753 113.4045,-44.6306"/>
<polygon fill="#000000" stroke="#000000" points="116.7506,-45.7418 117.8623,-35.2054 110.4227,-42.7488 116.7506,-45.7418"/>
<text text-anchor="middle" x="111.5" y="-58.2" font-family="Times,serif" font-size="14.00" fill="#000000">1</text>
</g>
<!-- 7&#45;&gt;1 -->
<g id="edge12" class="edge">
<title>7&#45;&gt;1</title>
<path fill="none" stroke="#000000" d="M144.8708,-177.5934C141.2075,-146.612 133.6865,-83.006 129.3267,-46.1346"/>
<polygon fill="#000000" stroke="#000000" points="132.7849,-45.5741 128.1348,-36.0543 125.8333,-46.3961 132.7849,-45.5741"/>
<text text-anchor="middle" x="141.5" y="-102.6" font-family="Times,serif" font-size="14.00" fill="#000000">1</text>
</g>
<!-- 7&#45;&gt;6 -->
<g id="edge11" class="edge">
<title>7&#45;&gt;6</title>
<path fill="none" stroke="#000000" d="M135.4448,-179.3127C126.0019,-166.0027 112.4968,-146.9669 101.693,-131.7388"/>
<polygon fill="#000000" stroke="#000000" points="104.3362,-129.4155 95.6953,-123.2848 98.627,-133.4659 104.3362,-129.4155"/>
<text text-anchor="middle" x="124.5" y="-147" font-family="Times,serif" font-size="14.00" fill="#000000">0</text>
</g>
</g>
</svg>