<?xml version="1.0" encoding="UTF-8" standalone="no"?>
<!DOCTYPE svg PUBLIC "-//W3C//DTD SVG 1.1//EN"
 "http://www.w3.org/Graphics/SVG/1.1/DTD/svg11.dtd">
<!-- Generated by graphviz version 2.40.1 (20161225.0304)
 -->
<!-- Title: %0 Pages: 1 -->
<svg width="220pt" height="399pt"
 viewBox="0.00 0.00 220.00 399.20" xmlns="http://www.w3.org/2000/svg" xmlns:xlink="http://www.w3.org/1999/xlink">
<g id="graph0" class="graph" transform="scale(1 1) rotate(0) translate(4 395.2)">
<title>%0</title>
<polygon fill="#ffffff" stroke="transparent" points="-4,4 -4,-395.2 216,-395.2 216,4 -4,4"/>
<!-- 0 -->
<g id="node1" class="node">
<title>0</title>
<ellipse fill="none" stroke="#000000" cx="60" cy="-18" rx="29.0299" ry="18"/>
<text text-anchor="middle" x="60" y="-13.8" font-family="Times,serif" font-size="14.00" fill="#000000">false</text>
</g>
<!-- 1 -->
<g id="node2" class="node">
<title>1</title>
<ellipse fill="none" stroke="#000000" cx="164" cy="-18" rx="27" ry="18"/>
<text text-anchor="middle" x="164" y="-13.8" font-family="Times,serif" font-size="14.00" fill="#000000">true</text>
</g>
<!-- 2 -->
<g id="node3" class="node">
<title>2</title>
<ellipse fill="none" stroke="#000000" cx="106" cy="-373.2" rx="27" ry="18"/>
<text text-anchor="middle" x="106" y="-369" font-family="Times,serif" font-size="14.00" fill="#000000">a</text>
</g>
<!-- 3 -->
<g id="node4" class="node">
<title>3</title>
<ellipse fill="none" stroke="#000000" cx="70" cy="-284.4" rx="27" ry="18"/>
<text text-anchor="middle" x="70" y="-280.2" font-family="Times,serif" font-size="14.00" fill="#000000">b</text>
</g>
<!-- 2&#45;&gt;3 -->
<g id="edge1" class="edge">
<title>2&#45;&gt;3</title>
<path fill="none" stroke="#000000" d="M98.8876,-355.656C93.7596,-343.0071 86.7433,-325.7002 80.9097,-311.3105"/>
<polygon fill="#000000" stroke="#000000" points="84.0984,-309.86 77.0977,-301.9076 77.6112,-312.49 84.0984,-309.86"/>
<text text-anchor="middle" x="94.5" y="-324.6" font-family="Times,serif" font-size="14.00" fill="#000000">0</text>
</g>
<!-- 4 -->
<g id="node5" class="node">
<title>4</title>
<ellipse fill="none" stroke="#000000" cx="142" cy="-284.4" rx="27" ry="18"/>
<text text-anchor="middle" x="142" y="-280.2" font-family="Times,serif" font-size="14.00" fill="#000000">b</text>
</g>
<!-- 2&#45;&gt;4 -->
<g id="edge2" class="edge">
<title>2&#45;&gt;4</title>
<path fill="none" stroke="#000000" d="M113.1124,-355.656C118.2404,-343.0071 125.2567,-325.7002 131.0903,-311.3105"/>
<polygon fill="#000000" stroke="#000000" points="134.3888,-312.49 134.9023,-301.9076 127.9016,-309.86 134.3888,-312.49"/>
<text text-anchor="middle" x="130.5" y="-324.6" font-family="Times,serif" font-size="14.00" fill="#000000">1</text>
</g>
<!-- 5 -->
<g id="node6" class="node">
<title>5</title>
<ellipse fill="none" stroke="#000000" cx="108" cy="-106.8" rx="27" ry="18"/>
<text text-anchor="middle" x="108" y="-102.6" font-family="Times,serif" font-size="14.00" fill="#000000">d</text>
</g>
<!-- 3&#45;&gt;5 -->
<g id="edge3" class="edge">
<title>3&#45;&gt;5</title>
<path fill="none" stroke="#000000" d="M73.8528,-266.3934C80.4817,-235.412 94.0911,-171.806 101.9802,-134.9346"/>
<polygon fill="#000000" stroke="#000000" points="105.4672,-135.3653 104.137,-124.8543 98.6221,-133.9006 105.4672,-135.3653"/>
<text text-anchor="middle" x="95.5" y="-191.4" font-family="Times,serif" font-size="14.00" fill="#000000">0</text>
</g>
<!-- 6 -->
<g id="node7" class="node">
<title>6</title>
<ellipse fill="none" stroke="#000000" cx="27" cy="-195.6" rx="27" ry="18"/>
<text text-anchor="middle" x="27" y="-191.4" font-family="Times,serif" font-size="14.00" fill="#000000">c</text>
</g>
<!-- 3&#45;&gt;6 -->
<g id="edge4" class="edge">
<title>3&#45;&gt;6</title>
<path fill="none" stroke="#000000" d="M61.5046,-266.856C55.2805,-254.0025 46.7274,-236.3393 39.6941,-221.8148"/>
<polygon fill="#000000" stroke="#000000" points="42.8399,-220.2803 35.3315,-212.8054 36.5397,-223.3311 42.8399,-220.2803"/>
<text text-anchor="middle" x="55.5" y="-235.8" font-family="Times,serif" font-size="14.00" fill="#000000">1</text>
</g>
<!-- 4&#45;&gt;5 -->
<g id="edge9" class="edge">
<title>4&#45;&gt;5</title>
<path fill="none" stroke="#000000" d="M138.5528,-266.3934C132.6217,-235.412 120.4448,-171.806 113.3861,-134.9346"/>
<polygon fill="#000000" stroke="#000000" points="116.7743,-134.0178 111.4563,-124.8543 109.8991,-135.334 116.7743,-134.0178"/>
<text text-anchor="middle" x="131.5" y="-191.4" font-family="Times,serif" font-size="14.00" fill="#000000">0</text>
</g>
<!-- 7 -->
<g id="node8" class="node">
<title>7</title>
<ellipse fill="none" stroke="#000000" cx="185" cy="-195.6" rx="27" ry="18"/>
<text text-anchor="middle" x="185" y="-191.4" font-family="Times,serif" font-size="14.00" fill="#000000">c</text>
</g>
<!-- 4&#45;&gt;7 -->
<g id="edge10" class="edge">
<title>4&#45;&gt;7</title>
<path fill="none" stroke="#000000" d="M150.4954,-266.856C156.7195,-254.0025 165.2726,-236.3393 172.3059,-221.8148"/>
<polygon fill="#000000" stroke="#000000" points="175.4603,-223.3311 176.6685,-212.8054 169.1601,-220.2803 175.4603,-223.3311"/>
<text text-anchor="middle" x="170.5" y="-235.8" font-family="Times,serif" font-size="14.00" fill="#000000">1</text>
</g>
<!-- 5&#45;&gt;0 -->
<g id="edge5" class="edge">
<title>5&#45;&gt;0</title>
<path fill="none" stroke="#000000" d="M98.7451,-89.6785C91.8174,-76.8622 82.2135,-59.0949 74.3007,-44.4563"/>
<polygon fill="#000000" stroke="#000000" points="77.2244,-42.5047 69.3902,-35.372 71.0665,-45.8334 77.2244,-42.5047"/>
<text text-anchor="middle" x="91.5" y="-58.2" font-family="Times,serif" font-size="14.00" fill="#000000">0</text>
</g>
<!-- 5&#45;&gt;1 -->
<g id="edge6" class="edge">
<title>5&#45;&gt;1</title>
<path fill="none" stroke="#000000" d="M118.5332,-90.0974C126.8243,-76.9501 138.5175,-58.408 147.9692,-43.4203"/>
<polygon fill="#000000" stroke="#000000" points="151.1403,-44.9532 153.5141,-34.6277 145.2193,-41.2192 151.1403,-44.9532"/>
<text text-anchor="middle" x="144.5" y="-58.2" font-family="Times,serif" font-size="14.00" fill="#000000">1</text>
</g>
<!-- 6&#45;&gt;0 -->
<g id="edge8" class="edge">
<title>6&#45;&gt;0</title>
<path fill="none" stroke="#000000" d="M30.3458,-177.5934C36.1025,-146.612 47.9212,-83.006 54.7723,-46.1346"/>
<polygon fill="#000000" stroke="#000000" points="58.2595,-46.5254 56.6453,-36.0543 51.3773,-45.2466 58.2595,-46.5254"/>
<text text-anchor="middle" x="49.5" y="-102.6" font-family="Times,serif" font-size="14.00" fill="#000000">1</text>
</g>
<!-- 6&#45;&gt;5 -->
<g id="edge7" class="edge">
<title>6&#45;&gt;5</title>
<path fill="none" stroke="#000000" d="M38.8864,-179.3645C46.9813,-168.6423 58.1572,-154.4701 69,-142.8 73.5276,-137.927 78.6028,-132.9397 83.5568,-128.29"/>
<polygon fill="#000000" stroke="#000000" points="86.1441,-130.6661 91.1458,-121.3262 81.4114,-125.5085 86.1441,-130.6661"/>
<text text-anchor="middle" x="72.5" y="-147" font-family="Times,serif" font-size="14.00" fill="#000000">0</text>
</g>
<!-- 7&#45;&gt;1 -->
<g id="edge12" class="edge">
<title>7&#45;&gt;1</title>
<path fill="none" stroke="#000000" d="M182.8708,-177.5934C179.2075,-146.612 171.6865,-83.006 167.3267,-46.1346"/>
<polygon fill="#000000" stroke="#000000" points="170.7849,-45.5741 166.1348,-36.0543 163.8333,-46.3961 170.7849,-45.5741"/>
<text text-anchor="middle" x="179.5" y="-102.6" font-family="Times,serif" font-size="14.00" fill="#000000">1</text>
</g>
<!-- 7&#45;&gt;5 -->
<g id="edge11" class="edge">
<title>7&#45;&gt;5</title>
<path fill="none" stroke="#000000" d="M172.9497,-179.0012C165.0388,-168.3827 154.2876,-154.4629 144,-142.8 139.9546,-138.2138 135.4664,-133.4771 131.0701,-129.0062"/>
<polygon fill="#000000" stroke="#000000" points="133.4043,-126.3909 123.8527,-121.8063 128.4606,-131.3467 133.4043,-126.3909"/>
<text text-anchor="middle" x="159.5" y="-147" font-family="Times,serif" font-size="14.00" fill="#000000">0</text>
</g>
</g>
</svg>