<?xml version="1.0" encoding="UTF-8" standalone="no"?>
<!DOCTYPE svg PUBLIC "-//W3C//DTD SVG 1.1//EN"
 "http://www.w3.org/Graphics/SVG/1.1/DTD/svg11.dtd">
<!-- Generated by graphviz version 2.40.1 (20161225.0304)
 -->
<!-- Title: %0 Pages: 1 -->
<svg width="176pt" height="310pt"
 viewBox="0.00 0.00 176.00 310.40" xmlns="http://www.w3.org/2000/svg" xmlns:xlink="http://www.w3.org/1999/xlink">
<g id="graph0" class="graph" transform="scale(1 1) rotate(0) translate(4 306.4)">
<title>%0</title>
<polygon fill="#ffffff" stroke="transparent" points="-4,4 -4,-306.4 172,-306.4 172,4 -4,4"/>
<!-- 0 -->
<g id="node1" class="node">
<title>0</title>
<ellipse fill="none" stroke="#000000" cx="51" cy="-18" rx="29.0299" ry="18"/>
<text text-anchor="middle" x="51" y="-13.8" font-family="Times,serif" font-size="14.00" fill="#000000">false</text>
</g>
<!-- 1 -->
<g id="node2" class="node">
<title>1</title>
<ellipse fill="none" stroke="#000000" cx="133" cy="-18" rx="27" ry="18"/>
<text text-anchor="middle" x="133" y="-13.8" font-family="Times,serif" font-size="14.00" fill="#000000">true</text>
</g>
<!-- 2 -->
<g id="node3" class="node">
<title>2</title>
<ellipse fill="none" stroke="#000000" cx="63" cy="-284.4" rx="27" ry="18"/>
<text text-anchor="middle" x="63" y="-280.2" font-family="Times,serif" font-size="14.00" fill="#000000">p</text>
</g>
<!-- 3 -->
<g id="node4" class="node">
<title>3</title>
<ellipse fill="none" stroke="#000000" cx="99" cy="-195.6" rx="27" ry="18"/>
<text text-anchor="middle" x="99" y="-191.4" font-family="Times,serif" font-size="14.00" fill="#000000">r</text>
</g>
<!-- 2&#45;&gt;3 -->
<g id="edge1" class="edge">
<title>2&#45;&gt;3</title>
<path fill="none" stroke="#000000" d="M70.1124,-266.856C75.2404,-254.2071 82.2567,-236.9002 88.0903,-222.5105"/>
<polygon fill="#000000" stroke="#000000" points="91.3888,-223.69 91.9023,-213.1076 84.9016,-221.06 91.3888,-223.69"/>
<text text-anchor="middle" x="87.5" y="-235.8" font-family="Times,serif" font-size="14.00" fill="#000000">0</text>
</g>
<!-- 4 -->
<g id="node5" class="node">
<title>4</title>
<ellipse fill="none" stroke="#000000" cx="27" cy="-195.6" rx="27" ry="18"/>
<text text-anchor="middle" x="27" y="-191.4" font-family="Times,serif" font-size="14.00" fill="#000000">r</text>
</g>
<!-- 2&#45;&gt;4 -->
<g id="edge2" class="edge">
<title>2&#45;&gt;4</title>
<path fill="none" stroke="#000000" d="M55.8876,-266.856C50.7596,-254.2071 43.7433,-236.9002 37.9097,-222.5105"/>
<polygon fill="#000000" stroke="#000000" points="41.0984,-221.06 34.0977,-213.1076 34.6112,-223.69 41.0984,-221.06"/>
<text text-anchor="middle" x="51.5" y="-235.8" font-family="Times,serif" font-size="14.00" fill="#000000">1</text>
</g>
<!-- 5 -->
<g id="node6" class="node">
<title>5</title>
<ellipse fill="none" stroke="#000000" cx="141" cy="-106.8" rx="27" ry="18"/>
<text text-anchor="middle" x="141" y="-102.6" font-family="Times,serif" font-size="14.00" fill="#000000">q</text>
</g>
<!-- 3&#45;&gt;5 -->
<g id="edge3" class="edge">
<title>3&#45;&gt;5</title>
<path fill="none" stroke="#000000" d="M107.2978,-178.056C113.3193,-165.325 121.5725,-147.8753 128.4045,-133.4306"/>
<polygon fill="#000000" stroke="#000000" points="131.7506,-134.5418 132.8623,-124.0054 125.4227,-131.5488 131.7506,-134.5418"/>
<text text-anchor="middle" x="126.5" y="-147" font-family="Times,serif" font-size="14.00" fill="#000000">0</text>
</g>
<!-- 6 -->
<g id="node7" class="node">
<title>6</title>
<ellipse fill="none" stroke="#000000" cx="69" cy="-106.8" rx="27" ry="18"/>
<text text-anchor="middle" x="69" y="-102.6" font-family="Times,serif" font-size="14.00" fill="#000000">q</text>
</g>
<!-- 3&#45;&gt;6 -->
<g id="edge4" class="edge">
<title>3&#45;&gt;6</title>
<path fill="none" stroke="#000000" d="M92.9291,-177.63C88.7132,-165.1511 83.0178,-148.2928 78.2411,-134.1536"/>
<polygon fill="#000000" stroke="#000000" points="81.4761,-132.7939 74.9595,-124.4402 74.8444,-135.0344 81.4761,-132.7939"/>
<text text-anchor="middle" x="89.5" y="-147" font-family="Times,serif" font-size="14.00" fill="#000000">1</text>
</g>
<!-- 4&#45;&gt;0 -->
<g id="edge9" class="edge">
<title>4&#45;&gt;0</title>
<path fill="none" stroke="#000000" d="M24.8615,-177.3007C22.8133,-155.9038 20.7383,-119.5038 26,-88.8 28.5616,-73.852 33.9584,-57.8676 39.0843,-44.8763"/>
<polygon fill="#000000" stroke="#000000" points="42.3359,-46.1717 42.8999,-35.5919 35.8614,-43.5109 42.3359,-46.1717"/>
<text text-anchor="middle" x="29.5" y="-102.6" font-family="Times,serif" font-size="14.00" fill="#000000">0</text>
</g>
<!-- 4&#45;&gt;6 -->
<g id="edge10" class="edge">
<title>4&#45;&gt;6</title>
<path fill="none" stroke="#000000" d="M35.2978,-178.056C41.3193,-165.325 49.5725,-147.8753 56.4045,-133.4306"/>
<polygon fill="#000000" stroke="#000000" points="59.7506,-134.5418 60.8623,-124.0054 53.4227,-131.5488 59.7506,-134.5418"/>
<text text-anchor="middle" x="54.5" y="-147" font-family="Times,serif" font-size="14.00" fill="#000000">1</text>
</g>
<!-- 5&#45;&gt;0 -->
<g id="edge6" class="edge">
<title>5&#45;&gt;0</title>
<path fill="none" stroke="#000000" d="M126.12,-91.4116C115.7959,-80.804 101.6756,-66.4322 89,-54 84.4017,-49.49 79.4368,-44.7178 74.6609,-40.1744"/>
<polygon fill="#000000" stroke="#000000" points="77.0597,-37.6258 67.3911,-33.2935 72.2478,-42.7096 77.0597,-37.6258"/>
<text text-anchor="middle" x="107.5" y="-58.2" font-family="Times,serif" font-size="14.00" fill="#000000">1</text>
</g>
<!-- 5&#45;&gt;1 -->
<g id="edge5" class="edge">
<title>5&#45;&gt;1</title>
<path fill="none" stroke="#000000" d="M139.3811,-88.83C138.2823,-76.6338 136.8067,-60.2543 135.5512,-46.3187"/>
<polygon fill="#000000" stroke="#000000" points="139.0272,-45.8937 134.644,-36.2481 132.0554,-46.5218 139.0272,-45.8937"/>
<text text-anchor="middle" x="140.5" y="-58.2" font-family="Times,serif" font-size="14.00" fill="#000000">0</text>
</g>
<!-- 6&#45;&gt;0 -->
<g id="edge7" class="edge">
<title>6&#45;&gt;0</title>
<path fill="none" stroke="#000000" d="M60.4513,-89.6145C57.9282,-83.7813 55.4551,-77.135 54,-70.8 52.1993,-62.9603 51.2797,-54.3027 50.8491,-46.3052"/>
<polygon fill="#000000" stroke="#000000" points="54.347,-46.1801 50.5317,-36.2961 47.3505,-46.4021 54.347,-46.1801"/>
<text text-anchor="middle" x="57.5" y="-58.2" font-family="Times,serif" font-size="14.00" fill="#000000">0</text>
</g>
<!-- 6&#45;&gt;1 -->
<g id="edge8" class="edge">
<title>6&#45;&gt;1</title>
<path fill="none" stroke="#000000" d="M71.189,-88.4136C73.1762,-77.6321 76.9339,-64.1754 84,-54 89.1066,-46.6463 96.2078,-40.2139 103.4214,-34.8994"/>
<polygon fill="#000000" stroke="#000000" points="105.525,-37.7016 111.8285,-29.1859 101.5904,-31.912 105.525,-37.7016"/>
<text text-anchor="middle" x="87.5" y="-58.2" font-family="Times,serif" font-size="14.00" fill="#000000">1</text>
</g>
</g>
</svg>