<?xml version="1.0" encoding="UTF-8" standalone="no"?>
<!DOCTYPE svg PUBLIC "-//W3C//DTD SVG 1.1//EN"
 "http://www.w3.org/Graphics/SVG/1.1/DTD/svg11.dtd">
<!-- Generated by graphviz version 2.40.1 (20161225.0304)
 -->
<!-- Title: %0 Pages: 1 -->
<svg width="138pt" height="133pt"
 viewBox="0.00 0.00 138.26 132.80" xmlns="http://www.w3.org/2000/svg" xmlns:xlink="http://www.w3.org/1999/xlink">
<g id="graph0" class="graph" transform="scale(1 1) rotate(0) translate(4 128.8)">
<title>%0</title>
<polygon fill="#ffffff" stroke="transparent" points="-4,4 -4,-128.8 134.264,-128.8 134.264,4 -4,4"/>
<!-- 0 -->
<g id="node1" class="node">
<title>0</title>
<ellipse fill="none" stroke="#000000" cx="29.264" cy="-18" rx="29.0299" ry="18"/>
<text text-anchor="middle" x="29.264" y="-13.8" font-family="Times,serif" font-size="14.00" fill="#000000">false</text>
</g>
<!-- 1 -->
<g id="node2" class="node">
<title>1</title>
<ellipse fill="none" stroke="#000000" cx="103.264" cy="-18" rx="27" ry="18"/>
<text text-anchor="middle" x="103.264" y="-13.8" font-family="Times,serif" font-size="14.00" fill="#000000">true</text>
</g>
<!-- 2 -->
<g id="node3" class="node">
<title>2</title>
<ellipse fill="none" stroke="#000000" cx="66.264" cy="-106.8" rx="42.2719" ry="18"/>
<text text-anchor="middle" x="66.264" y="-102.6" font-family="Times,serif" font-size="14.00" fill="#000000">variable</text>
</g>
<!-- 2&#45;&gt;0 -->
<g id="edge1" class="edge">
<title>2&#45;&gt;0</title>
<path fill="none" stroke="#000000" d="M58.7765,-88.83C53.5265,-76.2299 46.4161,-59.165 40.4901,-44.9426"/>
<polygon fill="#000000" stroke="#000000" points="43.6911,-43.5248 36.6141,-35.6402 37.2295,-46.2172 43.6911,-43.5248"/>
<text text-anchor="middle" x="54.764" y="-58.2" font-family="Times,serif" font-size="14.00" fill="#000000">0</text>
</g>
<!-- 2&#45;&gt;1 -->
<g id="edge2" class="edge">
<title>2&#45;&gt;1</title>
<path fill="none" stroke="#000000" d="M73.7515,-88.83C79.0015,-76.2299 86.1119,-59.165 92.0379,-44.9426"/>
<polygon fill="#000000" stroke="#000000" points="95.2985,-46.2172 95.9139,-35.6402 88.8369,-43.5248 95.2985,-46.2172"/>
<text text-anchor="middle" x="90.764" y="-58.2" font-family="Times,serif" font-size="14.00" fill="#000000">1</text>
</g>
</g>
</svg>